<mxfile host="app.diagrams.net" modified="2024-04-18T07:09:05.068Z" agent="Mozilla/5.0 (Windows NT 10.0; Win64; x64) AppleWebKit/537.36 (KHTML, like Gecko) Chrome/123.0.0.0 Safari/537.36" version="24.2.5" etag="V9VTyrYhsfedbmwIa4KR" type="github">
  <diagram name="Page-1" id="osIHctvGQO8CB0dn29Tx">
    <mxGraphModel>
      <root>
        <mxCell id="0" />
        <mxCell id="1" parent="0" />
      </root>
    </mxGraphModel>
  </diagram>
</mxfile>
